<?xml version="1.0" encoding="utf-8"?>
<svg width="221.99002075195312" height="66.5999755859375" viewBox="68.35470581054688 259.3385314941406 240.65658569335938 81.57218933105469" xmlns="http://www.w3.org/2000/svg">
  <defs>
    <style>.cls-1{fill:#435363;}.cls-2{fill:#00598b;}</style>
  </defs>
  <path class="cls-1" d="M318.22,309.09q0,8.66-4.38,13.62t-12.17,5q-8,0-12.3-4.87T285,309q0-8.81,4.34-13.65t12.33-4.85q7.77,0,12.14,4.93T318.22,309.09Zm-28.74,0q0,7.33,3.12,11.11t9.06,3.79q6,0,9.05-3.77t3.06-11.12q0-7.28-3-11t-9-3.76q-6,0-9.11,3.79T289.49,309.09Z" transform="matrix(1, 0, 0, 1, -207.43569946289062, -5.858760833740234)"/>
  <path class="cls-1" d="M336.86,327.66a11.7,11.7,0,0,1-4.82-1,9.06,9.06,0,0,1-3.66-3h-.3a36.27,36.27,0,0,1,.3,4.49V339.3h-4.09V300.13h3.33l.57,3.7h.2a9.51,9.51,0,0,1,3.68-3.21,11.17,11.17,0,0,1,4.81-1,10,10,0,0,1,8.3,3.68q2.92,3.68,2.92,10.31t-3,10.35A10,10,0,0,1,336.86,327.66Zm-.59-24.54q-4.14,0-6,2.29t-1.9,7.3v.91q0,5.7,1.9,8.15t6.09,2.45a6.34,6.34,0,0,0,5.49-2.84q2-2.84,2-7.82t-2-7.76A6.53,6.53,0,0,0,336.27,303.12Z" transform="matrix(1, 0, 0, 1, -207.43569946289062, -5.858760833740234)"/>
  <path class="cls-1" d="M371.32,319.79a6.77,6.77,0,0,1-2.81,5.82q-2.81,2-7.89,2-5.38,0-8.39-1.7v-3.8a20.29,20.29,0,0,0,4.18,1.55,17.45,17.45,0,0,0,4.3.57,9.76,9.76,0,0,0,4.93-1,3.52,3.52,0,0,0,.36-5.82,21.54,21.54,0,0,0-5.34-2.65,28.93,28.93,0,0,1-5.36-2.45,7.32,7.32,0,0,1-2.37-2.38,6.21,6.21,0,0,1-.78-3.18,6.07,6.07,0,0,1,2.69-5.22,12.53,12.53,0,0,1,7.38-1.91,21.58,21.58,0,0,1,8.53,1.78l-1.46,3.33a19.59,19.59,0,0,0-7.38-1.68,8.49,8.49,0,0,0-4.39.91A2.82,2.82,0,0,0,356,306.5a3.06,3.06,0,0,0,.56,1.85,5.47,5.47,0,0,0,1.79,1.46,39.9,39.9,0,0,0,4.74,2q4.81,1.75,6.5,3.53A6.22,6.22,0,0,1,371.32,319.79Z" transform="matrix(1, 0, 0, 1, -207.43569946289062, -5.858760833740234)"/>
  <path class="cls-2" d="M382.93,312.76v14.41H377V291.11h10.19q7,0,10.34,2.61t3.35,7.89q0,6.73-7,9.6l10.19,16h-6.71l-8.63-14.41Zm0-4.88H387q4.12,0,6-1.53a5.55,5.55,0,0,0,1.85-4.54,4.88,4.88,0,0,0-2-4.39,11,11,0,0,0-6-1.33h-3.9Z" transform="matrix(1, 0, 0, 1, -207.43569946289062, -5.858760833740234)"/>
  <path class="cls-2" d="M424.41,327.17l-1.16-3.8h-.2a11.17,11.17,0,0,1-4,3.39,12.56,12.56,0,0,1-5.13.9,8.68,8.68,0,0,1-6.28-2.17,8.12,8.12,0,0,1-2.26-6.14,7.21,7.21,0,0,1,3.13-6.36q3.13-2.15,9.55-2.34l4.71-.15V309a5.52,5.52,0,0,0-1.22-3.91,5,5,0,0,0-3.79-1.29,13.1,13.1,0,0,0-4,.62,30.43,30.43,0,0,0-3.7,1.46l-1.87-4.14a20.17,20.17,0,0,1,4.86-1.76,22.36,22.36,0,0,1,5-.6q5.2,0,7.86,2.27t2.65,7.13v18.38Zm-8.63-3.95a7.18,7.18,0,0,0,5.07-1.76,6.39,6.39,0,0,0,1.91-4.95v-2.37l-3.5.15q-4.09.15-6,1.37a4.16,4.16,0,0,0-1.86,3.74,3.65,3.65,0,0,0,1.08,2.82A4.66,4.66,0,0,0,415.78,323.22Z" transform="matrix(1, 0, 0, 1, -207.43569946289062, -5.858760833740234)"/>
  <path class="cls-2" d="M458.27,327.17h-5.82V310.35a7.63,7.63,0,0,0-1.18-4.67,4.37,4.37,0,0,0-3.7-1.54,5.64,5.64,0,0,0-4.92,2.18q-1.57,2.18-1.57,7.26v13.59h-5.8V299.89h4.54l.81,3.58h.3a7.56,7.56,0,0,1,3.29-3,10.63,10.63,0,0,1,4.75-1.06q6.29,0,8.34,4.29h.4a8.31,8.31,0,0,1,3.4-3.16,10.8,10.8,0,0,1,5-1.13q4.88,0,7.12,2.47t2.23,7.52v17.78h-5.8V310.35a7.57,7.57,0,0,0-1.2-4.67,4.41,4.41,0,0,0-3.71-1.54,5.75,5.75,0,0,0-4.95,2.11q-1.57,2.11-1.57,6.48Z" transform="matrix(1, 0, 0, 1, -207.43569946289062, -5.858760833740234)"/>
  <path class="cls-2" d="M496,327.66a9.55,9.55,0,0,1-8-3.72h-.35q.34,3.45.35,4.19V339.3h-5.8V299.89h4.69q.2.77.81,3.65h.3a9.08,9.08,0,0,1,8.14-4.14,9.47,9.47,0,0,1,8,3.7q2.85,3.7,2.85,10.38t-2.9,10.43A9.55,9.55,0,0,1,496,327.66Zm-1.41-23.53q-3.45,0-5,2T488,312.62v.86q0,5,1.58,7.21t5.16,2.23a5.23,5.23,0,0,0,4.64-2.47,12.74,12.74,0,0,0,1.63-7q0-4.59-1.62-6.94A5.39,5.39,0,0,0,494.64,304.13Z" transform="matrix(1, 0, 0, 1, -207.43569946289062, -5.858760833740234)"/>
  <polygon class="cls-2" points="408.03 292.58 506.28 292.58 506.28 272.7 408.03 292.58" transform="matrix(1, 0, 0, 1, -207.43569946289062, -5.858760833740234)"/>
</svg>